<svg xmlns="http://www.w3.org/2000/svg" viewBox="0 0 26.0 44.0" width="26.0" height="44.0">
  <path d="M 25.00 43.00 L 23.00 43.00 L 22.00 44.00 L 21.00 43.00 L 1.00 43.00 L 1.00 27.00 L 0.00 26.00 L 1.00 25.00 L 1.00 6.00 L 0.00 5.00 L 1.00 4.00 L 1.00 2.00 L 0.00 1.00 L 1.00 0.00 L 5.00 0.00 L 6.00 1.00 L 5.00 2.00 L 5.00 3.00 L 8.00 6.00 L 8.00 7.00 L 11.00 10.00 L 11.00 11.00 L 13.00 13.00 L 13.00 14.00 L 14.00 15.00 L 14.00 20.00 L 16.00 22.00 L 17.00 22.00 L 18.00 23.00 L 19.00 23.00 L 19.00 24.00 L 21.00 26.00 L 21.00 27.00 L 22.00 28.00 L 22.00 33.00 L 23.00 34.00 L 25.00 34.00 L 26.00 35.00 L 26.00 42.00 Z" fill="#0d4058" stroke="#f7941d" stroke-width="1.5" stroke-linejoin="round" />
</svg>